<svg xmlns="http://www.w3.org/2000/svg" xml:space="preserve" width="2480px" height="2480px" style="shape-rendering:geometricPrecision; text-rendering:geometricPrecision; image-rendering:optimizeQuality; fill-rule:evenodd; clip-rule:evenodd"
viewBox="0 0 2480 2480"
 xmlns:xlink="http://www.w3.org/1999/xlink">
 <defs>
  <style type="text/css">
   <![CDATA[
    .fil0 {fill:#969594}
    .fil1 {fill:#DEDEDD}
   ]]>
  </style>
 </defs>
 <g>
  <path class="fil0" d="M1389.78 986.79c304.318,0 608.637,0 912.956,0 63.9651,0 116.3,52.3351 116.3,116.3 0,110.485 0,220.969 0,331.454 0,63.9651 -52.3351,116.3 -116.3,116.3 -304.32,0 -608.638,0 -912.956,0 -63.9651,0 -116.299,-52.3351 -116.299,-116.3 0,-110.485 0,-220.969 0,-331.454 0,-63.9651 52.3339,-116.3 116.299,-116.3zm0 914.884l912.956 0c63.9651,0 116.3,52.3351 116.3,116.3l0 331.456c0,63.9651 -52.3351,116.3 -116.3,116.3l-912.956 0c-63.9651,0 -116.3,-52.3351 -116.3,-116.3l0 -331.456c0,-63.9651 52.3351,-116.3 116.3,-116.3zm0 -1829.77l912.956 0c63.9651,0 116.3,52.3351 116.3,116.3l0 331.456c0,63.9651 -52.3351,116.3 -116.3,116.3l-912.956 0c-63.9651,0 -116.3,-52.3351 -116.3,-116.3l0 -331.456c0,-63.9651 52.3351,-116.3 116.3,-116.3zm-1286.82 1254.06l479.833 -360.61 479.833 -360.603 0.00354286 721.217 -0.00354286 721.211 -479.833 -360.604 -479.833 -360.612z"/>
  <path class="fil1" d="M1350.49 947.492c304.318,0 608.637,0 912.956,0 63.9651,0 116.3,52.3351 116.3,116.3 0,110.485 0,220.969 0,331.454 0,63.9651 -52.3351,116.3 -116.3,116.3 -304.32,0 -608.638,0 -912.956,0 -63.9651,0 -116.299,-52.3351 -116.299,-116.3 0,-110.485 0,-220.969 0,-331.454 0,-63.9651 52.3339,-116.3 116.299,-116.3zm0 914.884l912.956 0c63.9651,0 116.3,52.3351 116.3,116.3l0 331.456c0,63.9651 -52.3351,116.3 -116.3,116.3l-912.956 0c-63.9651,0 -116.3,-52.3351 -116.3,-116.3l0 -331.456c0,-63.9651 52.3351,-116.3 116.3,-116.3zm0 -1829.77l912.956 0c63.9651,0 116.3,52.3351 116.3,116.3l0 331.456c0,63.9651 -52.3351,116.3 -116.3,116.3l-912.956 0c-63.9651,0 -116.3,-52.3351 -116.3,-116.3l0 -331.456c0,-63.9651 52.3351,-116.3 116.3,-116.3zm-1286.82 1254.06l479.833 -360.61 479.833 -360.603 0.00354286 721.217 -0.00354286 721.211 -479.833 -360.604 -479.833 -360.612z"/>
 </g>
</svg>